<svg width="193" height="111" viewBox="0 0 193 111" fill="none" xmlns="http://www.w3.org/2000/svg">
<g filter="url(#filter0_d)">
<path d="M23.4766 61.5461L22.3532 60.245C21.3397 59.0737 20.0453 58.1717 18.5782 57.6814C15.8935 56.7916 13.4648 57.4578 10.6418 59.433L8.47251 61.0801C5.81874 63.2634 4.51754 65.4294 4.66065 68.249C4.73889 69.7939 5.26006 71.283 6.1161 72.5739L7.06764 74.0054C7.68039 74.9313 8.37013 75.81 9.13322 76.6217L9.30599 76.8047L26.1808 99.0288C27.2215 100.281 27.9711 100.777 29.1968 101.529C31.3029 102.713 33.4992 102.29 37.8181 99.0445L39.343 97.8866C43.6295 94.5982 44.6208 92.589 44.0522 90.2496C43.6569 88.8669 43.3727 88.0169 42.4537 86.6728L25.5843 64.4558L25.4545 64.2402C24.8632 63.298 24.2021 62.3976 23.4766 61.5461ZM24.7998 66.6333L27.5219 72.1954C27.7061 72.5717 27.8973 72.9425 28.0958 73.3079C23.1982 75.6131 20.5864 77.4503 17.0706 81.6794C16.7719 81.3901 16.4661 81.1062 16.1531 80.8278L11.5266 76.7117C10.5247 75.8232 10.296 74.3477 10.9939 73.2007C11.9168 71.681 13.2688 70.2954 15.2659 68.6892L16.0534 68.0913C18.137 66.5989 19.8474 65.6705 21.552 65.1952C22.8532 64.813 24.2131 65.4296 24.7998 66.6333Z" fill="#F2F2F2"/>
<path d="M6.42286 64.2971L11.5244 72.4279L11.6103 72.3627L6.81325 64.068C6.64858 64.193 6.53228 64.2925 6.42286 64.2971Z" fill="#E7E7E7"/>
<path d="M14.2909 58.323L20.7526 65.421L20.6667 65.4862L13.9725 58.6321C14.13 58.5125 14.2571 58.4272 14.2909 58.323Z" fill="#E7E7E7"/>
<path d="M39.4459 86.9036C40.0944 87.7576 40.5254 88.5185 40.7321 89.2366C40.6746 89.1906 40.6027 89.1554 40.5237 89.1257C40.5962 89.3847 40.6508 89.635 40.7 89.8781C40.8405 90.6577 40.6456 91.4564 40.1955 92.1123C39.4828 93.1359 38.6815 93.9238 37.5221 94.9387C37.2305 95.1938 36.9352 95.4293 36.6274 95.663L36.4269 95.8152C36.1262 96.0435 35.8201 96.2647 35.5104 96.4663C34.2142 97.3158 33.24 97.8761 32.0554 98.293C31.3082 98.5575 30.4882 98.5182 29.7678 98.1789C29.5397 98.0716 29.3204 97.9464 29.0778 97.8053C29.0816 97.8697 29.0926 97.9287 29.1089 97.9948C28.4709 97.6154 27.8574 97.0155 27.2252 96.1829C26.9496 95.8199 26.6901 95.4336 26.4449 95.0363L38.544 85.8495C38.8805 86.1886 39.1704 86.5407 39.4459 86.9036Z" fill="#4B545A"/>
<path d="M39.4459 86.9036C40.0944 87.7576 40.5254 88.5185 40.7321 89.2366C40.6746 89.1906 40.6027 89.1554 40.5237 89.1257C40.5962 89.3847 40.6508 89.635 40.7 89.8781C40.8405 90.6577 40.6456 91.4564 40.1955 92.1123C39.4828 93.1359 38.6815 93.9238 37.5221 94.9387C37.2305 95.1938 36.9352 95.4293 36.6274 95.663L36.4269 95.8152C36.1262 96.0435 35.8201 96.2647 35.5104 96.4663C34.2142 97.3158 33.24 97.8761 32.0554 98.293C31.3082 98.5575 30.4882 98.5182 29.7678 98.1789C29.5397 98.0716 29.3204 97.9464 29.0778 97.8053C29.0816 97.8697 29.0926 97.9287 29.1089 97.9948C28.4709 97.6154 27.8574 97.0155 27.2252 96.1829C26.9496 95.8199 26.6901 95.4336 26.4449 95.0363L38.544 85.8495C38.8805 86.1886 39.1704 86.5407 39.4459 86.9036Z" fill="#4388FC" fill-opacity="0.1"/>
<path d="M39.4459 86.9036C40.0944 87.7576 40.5254 88.5185 40.7321 89.2366C40.6746 89.1906 40.6027 89.1554 40.5237 89.1257C40.5962 89.3847 40.6508 89.635 40.7 89.8781C40.8405 90.6577 40.6456 91.4564 40.1955 92.1123C39.4828 93.1359 38.6815 93.9238 37.5221 94.9387C37.2305 95.1938 36.9352 95.4293 36.6274 95.663L36.4269 95.8152C36.1262 96.0435 35.8201 96.2647 35.5104 96.4663C34.2142 97.3158 33.24 97.8761 32.0554 98.293C31.3082 98.5575 30.4882 98.5182 29.7678 98.1789C29.5397 98.0716 29.3204 97.9464 29.0778 97.8053C29.0816 97.8697 29.0926 97.9287 29.1089 97.9948C28.4709 97.6154 27.8574 97.0155 27.2252 96.1829C26.9496 95.8199 26.6901 95.4336 26.4449 95.0363L38.544 85.8495C38.8805 86.1886 39.1704 86.5407 39.4459 86.9036Z" fill="url(#paint0_radial)" fill-opacity="0.77"/>
<path d="M25.2493 93.0158C25.7321 93.6814 26.2311 94.3683 26.7842 95.1264C26.8274 95.1833 26.8563 95.2511 26.8655 95.3227C26.9167 95.6428 26.8043 95.8515 26.4945 96.0083C26.0088 96.1863 25.5328 95.9756 25.0322 95.346L11.0668 77.7563C11.056 77.7421 11.0452 77.7279 11.0344 77.7136C11.047 77.7153 11.065 77.7241 11.0829 77.7329L11.5931 77.9738C11.7009 78.0265 11.807 78.0919 11.9041 78.1752L14.8254 80.8037C16.8941 82.666 18.5803 84.426 19.9814 86.2118C22.2337 88.8658 23.6352 90.7859 25.2493 93.0158Z" fill="#4B545A"/>
<path d="M25.2494 93.0158C25.7321 93.6814 26.2312 94.3683 26.7842 95.1264C26.8274 95.1833 26.8563 95.2511 26.8655 95.3227C26.9167 95.6428 26.8043 95.8515 26.4945 96.0083C26.0088 96.1863 25.5328 95.9756 25.0322 95.346L11.0668 77.7563C11.056 77.7421 11.0452 77.7279 11.0344 77.7136C11.047 77.7153 11.065 77.7241 11.0829 77.7329L11.5931 77.9738C11.7009 78.0265 11.807 78.0919 11.9041 78.1752L14.8254 80.8037C16.8941 82.666 18.5803 84.426 19.9814 86.2118C22.2337 88.8658 23.6352 90.7859 25.2494 93.0158Z" fill="#4388FC" fill-opacity="0.1"/>
<path d="M25.2494 93.0158C25.7321 93.6814 26.2312 94.3683 26.7842 95.1264C26.8274 95.1833 26.8563 95.2511 26.8655 95.3227C26.9167 95.6428 26.8043 95.8515 26.4945 96.0083C26.0088 96.1863 25.5328 95.9756 25.0322 95.346L11.0668 77.7563C11.056 77.7421 11.0452 77.7279 11.0344 77.7136C11.047 77.7153 11.065 77.7241 11.0829 77.7329L11.5931 77.9738C11.7009 78.0265 11.807 78.0919 11.9041 78.1752L14.8254 80.8037C16.8941 82.666 18.5803 84.426 19.9814 86.2118C22.2337 88.8658 23.6352 90.7859 25.2494 93.0158Z" fill="url(#paint1_radial)" fill-opacity="0.77"/>
<path d="M19.5164 88.3939C20.1762 88.2967 20.5901 88.1283 21.2527 87.7374L20.383 86.6812C19.6174 86.8026 19.0003 86.8224 18.1658 86.7043L19.5164 88.3939Z" fill="#4B545A"/>
<path d="M13.3539 79.4753L12.6677 79.7607L11.074 77.7509C11.0632 77.7367 11.0524 77.7225 11.0416 77.7083C11.0541 77.7099 11.0721 77.7187 11.0901 77.7275L11.6003 77.9684C11.7081 78.0212 11.8141 78.0865 11.9112 78.1698L13.3539 79.4753Z" fill="#4B545A"/>
<path d="M36.9047 84.166C37.4162 84.8098 37.9438 85.475 38.5255 86.2113C38.5687 86.2682 38.6263 86.3143 38.6927 86.3424C38.9873 86.4777 39.2186 86.4255 39.4528 86.1691C39.7547 85.7492 39.6796 85.234 39.2076 84.5827L26.0155 66.4059C26.0047 66.3917 25.9939 66.3775 25.983 66.3632C25.9813 66.3758 25.9849 66.3955 25.9886 66.4151L26.0836 66.9713C26.1054 67.0893 26.1399 67.209 26.1941 67.3249L27.9449 70.8646C29.1831 73.3574 30.4255 75.4545 31.7693 77.2838C33.7101 80.1519 35.1904 82.0122 36.9047 84.166Z" fill="#4B545A"/>
<path d="M36.9047 84.166C37.4161 84.8098 37.9437 85.475 38.5254 86.2113C38.5686 86.2683 38.6262 86.3143 38.6927 86.3424C38.9873 86.4777 39.2185 86.4255 39.4528 86.1691C39.7547 85.7492 39.6795 85.234 39.2076 84.5827L26.0154 66.4059C26.0046 66.3917 25.9938 66.3775 25.983 66.3632C25.9812 66.3758 25.9849 66.3955 25.9885 66.4151L26.0835 66.9713C26.1054 67.0893 26.1398 67.209 26.194 67.3249L27.9449 70.8646C29.1831 73.3574 30.4255 75.4545 31.7693 77.2838C33.7101 80.1519 35.1903 82.0122 36.9047 84.166Z" fill="#4388FC" fill-opacity="0.1"/>
<path d="M36.9047 84.166C37.4161 84.8098 37.9437 85.475 38.5254 86.2113C38.5686 86.2683 38.6262 86.3143 38.6927 86.3424C38.9873 86.4777 39.2185 86.4255 39.4528 86.1691C39.7547 85.7492 39.6795 85.234 39.2076 84.5827L26.0154 66.4059C26.0046 66.3917 25.9938 66.3775 25.983 66.3632C25.9812 66.3758 25.9849 66.3955 25.9885 66.4151L26.0835 66.9713C26.1054 67.0893 26.1398 67.209 26.194 67.3249L27.9449 70.8646C29.1831 73.3574 30.4255 75.4545 31.7693 77.2838C33.7101 80.1519 35.1903 82.0122 36.9047 84.166Z" fill="url(#paint2_radial)" fill-opacity="0.77"/>
<path d="M33.9977 77.4092C33.7269 78.0188 33.4535 78.3722 32.899 78.9054L32.1152 77.784C32.4378 77.0791 32.6226 76.4901 32.7331 75.6545L33.9977 77.4092Z" fill="#4B545A"/>
<path d="M27.0623 69.0778L27.5215 68.4935L26.0137 66.4185C26.0029 66.4042 25.9921 66.39 25.9813 66.3758C25.9795 66.3883 25.9832 66.408 25.9868 66.4277L26.0818 66.9838C26.1037 67.1018 26.1381 67.2215 26.1923 67.3375L27.0623 69.0778Z" fill="#4B545A"/>
<path d="M12.056 78.5535C12.2286 78.6916 12.2971 78.7967 12.3856 78.9875L11.7914 79.4387L11.4618 79.0046L12.056 78.5535Z" fill="#FB8B23"/>
<path d="M11.6539 79.0495L12.1006 79.6527C12.1492 79.7168 12.1495 79.8063 12.1013 79.8766L10.9439 81.5631C10.9046 81.6154 10.8257 81.6304 10.7736 81.5915C10.6927 81.5295 10.6064 81.4604 10.5182 81.3591C10.457 81.2934 10.4101 81.2168 10.3669 81.1599C10.2677 80.9996 10.2169 80.8137 10.2235 80.6292C10.2338 80.4644 10.2655 80.2832 10.3708 80.0799C10.5027 79.8226 10.7387 79.5537 11.0125 79.3346C11.136 79.2296 11.3061 79.1117 11.4403 79.0209C11.5119 78.9666 11.6053 78.9855 11.6539 79.0495Z" fill="#FB8B23"/>
<path d="M26.5108 67.5786C26.5975 67.782 26.6803 67.8762 26.8404 68.0127L27.4346 67.5615L27.105 67.1274L26.5108 67.5786Z" fill="#594F4F"/>
<path d="M27.1017 67.3312L27.5627 67.9236C27.6114 67.9876 27.6976 68.0119 27.7782 67.9844L29.7136 67.3226C29.7746 67.2987 29.8102 67.2268 29.7867 67.1661C29.7487 67.0715 29.7054 66.9698 29.6315 66.8576C29.5846 66.781 29.5234 66.7153 29.4802 66.6584C29.3524 66.5198 29.1871 66.421 29.0075 66.3778C28.846 66.3434 28.6629 66.3253 28.4388 66.372C28.1556 66.43 27.8331 66.5851 27.5485 66.79C27.4143 66.8807 27.255 67.0129 27.1315 67.1178C27.06 67.1722 27.0477 67.2601 27.1017 67.3312Z" fill="#FB8B23"/>
<path d="M6.08038 64.9607C5.26683 67.0257 5.23079 68.7471 6.0909 70.7866L5.44249 69.9327C5.05885 69.4274 4.86324 68.8131 4.90078 68.1787C4.98315 66.9494 5.24573 65.9871 6.08038 64.9607Z" fill="url(#paint3_linear)"/>
<path d="M6.08038 64.9607C5.26683 67.0257 5.23079 68.7471 6.0909 70.7866L5.44249 69.9327C5.05885 69.4274 4.86324 68.8131 4.90078 68.1787C4.98315 66.9494 5.24573 65.9871 6.08038 64.9607Z" fill="url(#paint4_linear)"/>
<path d="M6.09288 70.7739L5.44987 69.9271C5.06623 69.4218 4.87062 68.8075 4.90816 68.1731C4.98338 66.9492 5.24596 65.9869 6.08061 64.9605C5.26705 67.0255 5.22562 68.7398 6.09288 70.7739Z" fill="#D5E3F0"/>
<path d="M14.9578 58.2202C17.1655 57.9912 18.8333 58.4189 20.5669 59.7952L19.9184 58.9412C19.5348 58.436 18.9955 58.0825 18.3744 57.9483C17.1753 57.692 16.1707 57.6919 14.9578 58.2202Z" fill="url(#paint5_linear)"/>
<path d="M14.9578 58.2202C17.1655 57.9912 18.8333 58.4189 20.5669 59.7952L19.9184 58.9412C19.5348 58.436 18.9955 58.0825 18.3744 57.9483C17.1753 57.692 16.1707 57.6919 14.9578 58.2202Z" fill="url(#paint6_linear)"/>
<path d="M20.5615 59.7881L19.9185 58.9413C19.5348 58.436 18.9956 58.0826 18.3745 57.9484C17.1699 57.685 16.1653 57.6849 14.9525 58.2131C17.1655 57.9913 18.828 58.4118 20.5615 59.7881Z" fill="#D5E3F0"/>
<path d="M33.6569 101.621C31.815 102.391 30.4889 102.265 29.1951 101.542C28.8357 101.321 28.5121 101.118 28.2137 100.918L28.3893 100.852C28.9825 100.638 29.6339 100.693 30.1801 100.996C31.0642 101.492 31.6439 101.556 32.9958 101.315C33.2647 101.268 33.5288 101.393 33.6569 101.621Z" fill="#FB8B23"/>
<path d="M42.928 94.5812C44.1647 93.014 44.3993 91.7027 44.0505 90.2622C43.9344 89.8567 43.8257 89.4905 43.7134 89.1494L43.6027 89.3009C43.2365 89.8145 43.1147 90.4568 43.26 91.0644C43.4998 92.0491 43.4065 92.6248 42.8111 93.8623C42.6934 94.1087 42.7427 94.3966 42.928 94.5812Z" fill="#FB8B23"/>
<path d="M17.379 69.8223C19.5127 68.2919 21.191 67.4103 22.8023 66.9608C23.5014 66.7666 24.2408 66.8783 24.8465 67.2598L27.3088 72.3012C27.4586 72.6026 27.6138 72.911 27.7708 73.207C25.159 74.4496 23.3611 75.5007 21.7932 76.6911C20.2038 77.8979 18.7282 79.3437 17.0534 81.3447C16.8105 81.114 16.5622 80.8762 16.305 80.6564L12.1174 76.9251C11.9126 76.2391 12.0037 75.4969 12.3785 74.8757C13.2514 73.4388 14.5496 72.0716 16.5915 70.4202L17.379 69.8223ZM17.2385 69.6372L16.451 70.2352C14.4538 71.8414 13.1001 73.2395 12.179 74.7467C11.747 75.4561 11.6671 76.3022 11.9151 77.045L16.1602 80.8224C16.4732 81.1008 16.7791 81.3847 17.0777 81.674C18.7936 79.6082 20.2942 78.121 21.948 76.8653C23.6877 75.5443 25.595 74.4888 28.1101 73.2971C27.9116 72.9317 27.7204 72.5609 27.5362 72.1846L25.0433 67.088C24.3872 66.655 23.558 66.4993 22.7586 66.7248C21.0325 67.2164 19.3221 68.1449 17.2385 69.6372Z" fill="black"/>
<path d="M25.0291 67.0987L27.522 72.1954C27.7061 72.5716 27.8974 72.9425 28.0959 73.3079C23.1983 75.613 20.5865 77.4503 17.0707 81.6793C16.772 81.39 16.4662 81.1062 16.1532 80.8277L11.9134 77.0575C11.6726 76.3092 11.7454 75.4686 12.1773 74.7591C13.1002 73.2394 14.4522 71.8538 16.4493 70.2476L17.2369 69.6497C19.3205 68.1574 21.0309 67.2289 22.7354 66.7536C23.5438 66.5101 24.373 66.6657 25.0291 67.0987Z" fill="#4B545A"/>
<path d="M25.0291 67.0987L27.522 72.1954C27.7061 72.5716 27.8974 72.9425 28.0958 73.3079C23.1982 75.613 20.5864 77.4503 17.0706 81.6793C16.7719 81.39 16.4661 81.1062 16.1531 80.8277L11.9134 77.0575C11.6725 76.3092 11.7453 75.4686 12.1773 74.7591C13.1001 73.2394 14.4521 71.8538 16.4493 70.2476L17.2368 69.6497C19.3204 68.1573 21.0308 67.2289 22.7354 66.7536C23.5437 66.51 24.373 66.6657 25.0291 67.0987Z" fill="#FB8B23" fill-opacity="0.1"/>
<path d="M25.0291 67.0987L27.522 72.1954C27.7061 72.5716 27.8974 72.9425 28.0958 73.3079C23.1982 75.613 20.5864 77.4503 17.0706 81.6793C16.7719 81.39 16.4661 81.1062 16.1531 80.8277L11.9134 77.0575C11.6725 76.3092 11.7453 75.4686 12.1773 74.7591C13.1001 73.2394 14.4521 71.8538 16.4493 70.2476L17.2368 69.6497C19.3204 68.1573 21.0308 67.2289 22.7354 66.7536C23.5437 66.51 24.373 66.6657 25.0291 67.0987Z" fill="url(#paint7_radial)" fill-opacity="0.77"/>
<path d="M25.0291 67.0987L27.522 72.1954C27.7061 72.5716 27.8974 72.9425 28.0958 73.3079C23.1982 75.613 20.5864 77.4503 17.0706 81.6793C16.7719 81.39 16.4661 81.1062 16.1531 80.8277L11.9134 77.0575C11.6725 76.3092 11.7453 75.4686 12.1773 74.7591C13.1001 73.2394 14.4521 71.8538 16.4493 70.2476L17.2368 69.6497C19.3204 68.1573 21.0308 67.2289 22.7354 66.7536C23.5437 66.51 24.373 66.6657 25.0291 67.0987Z" stroke="#FB8B23"/>
<path d="M24.7999 66.6334C24.2132 65.4297 22.8533 64.813 21.561 65.1772C19.8492 65.658 18.1514 66.5881 16.0624 68.0733L15.2749 68.6713C13.2777 70.2775 11.924 71.6756 11.0029 73.1828C10.3049 74.3298 10.5337 75.8053 11.5356 76.6938L11.9223 77.0396C11.6815 76.2913 11.7542 75.4507 12.1862 74.7413C13.1091 73.2216 14.4611 71.836 16.4582 70.2298L17.2457 69.6318C19.3293 68.1395 21.0397 67.211 22.7443 66.7357C23.5437 66.5102 24.3802 66.6604 25.0291 67.0988L24.7999 66.6334Z" fill="#FB8B23"/>
<path d="M14.1345 58.2505C14.1399 58.2576 14.1221 58.2936 14.0434 58.3534L6.52617 64.0612C6.44742 64.121 6.40258 64.1214 6.40258 64.1214C6.39717 64.1143 6.37907 64.0607 6.42175 63.9386L6.45377 63.8469C6.63328 63.2955 6.7666 62.8914 7.09146 62.353C7.50277 61.9285 7.96434 61.5107 8.47791 61.0871L10.6472 59.44C11.1931 59.0591 11.7196 58.7267 12.2389 58.4445C12.2389 58.4445 12.2389 58.4445 12.2461 58.4391C12.8519 58.2708 13.277 58.2509 13.8564 58.2261L13.9533 58.2199C14.0824 58.2116 14.1291 58.2434 14.1345 58.2505Z" fill="#4B545A"/>
<path d="M25.9521 94.0305L37.6933 85.1154C37.6933 85.1154 38.4236 85.8806 38.6233 87.1579C39.0624 89.9659 29.8891 96.7628 27.6339 95.5022C26.5059 94.8716 25.9521 94.0305 25.9521 94.0305Z" fill="#F2F2F2"/>
<path d="M63.5 29.4998C45.1 45.8997 44.1667 75.6664 46 88.4998L50 85.9998C47.5 30.4998 93 16.9998 113 13.4998C129 10.6998 137 26.6664 139 34.9998C137.833 37.4998 137.8 41.5998 147 37.9998C158.5 33.4998 184 34.9998 187.5 34.9998C190.3 34.9998 181.333 11.6664 176.5 -0.000244141C173.5 0.333089 168.6 1.79976 173 4.99977C177.4 8.19977 179.5 22.6664 180 29.4998L147 32.4998C142.167 25.1664 130.8 9.39977 124 4.99977C115.5 -0.500235 86.5 8.9998 63.5 29.4998Z" fill="#FB8B23"/>
</g>
<defs>
<filter id="filter0_d" x="-4" y="-0.000244141" width="196.03" height="113.742" filterUnits="userSpaceOnUse" color-interpolation-filters="sRGB">
<feFlood flood-opacity="0" result="BackgroundImageFix"/>
<feColorMatrix in="SourceAlpha" type="matrix" values="0 0 0 0 0 0 0 0 0 0 0 0 0 0 0 0 0 0 127 0"/>
<feOffset dy="4"/>
<feGaussianBlur stdDeviation="2"/>
<feColorMatrix type="matrix" values="0 0 0 0 0 0 0 0 0 0 0 0 0 0 0 0 0 0 0.3 0"/>
<feBlend mode="normal" in2="BackgroundImageFix" result="effect1_dropShadow"/>
<feBlend mode="normal" in="SourceGraphic" in2="effect1_dropShadow" result="shape"/>
</filter>
<radialGradient id="paint0_radial" cx="0" cy="0" r="1" gradientUnits="userSpaceOnUse" gradientTransform="translate(32.5231 89.8266) rotate(52.7906) scale(7.63961 25.3951)">
<stop stop-color="white" stop-opacity="0.8"/>
<stop offset="1" stop-color="white" stop-opacity="0.01"/>
</radialGradient>
<radialGradient id="paint1_radial" cx="0" cy="0" r="1" gradientUnits="userSpaceOnUse" gradientTransform="translate(27.4998 97.6187) rotate(52.8241) scale(26.1641 3.34536)">
<stop stop-color="white" stop-opacity="0.8"/>
<stop offset="1" stop-color="white" stop-opacity="0.01"/>
</radialGradient>
<radialGradient id="paint2_radial" cx="0" cy="0" r="1" gradientUnits="userSpaceOnUse" gradientTransform="translate(40.7568 87.5528) rotate(52.8242) scale(26.1641 3.35186)">
<stop stop-color="white" stop-opacity="0.8"/>
<stop offset="1" stop-color="white" stop-opacity="0.01"/>
</radialGradient>
<linearGradient id="paint3_linear" x1="4.68728" y1="68.9294" x2="7.48572" y2="66.8046" gradientUnits="userSpaceOnUse">
<stop offset="0.1548" stop-color="#A1A1A1"/>
<stop offset="0.9205" stop-color="white"/>
</linearGradient>
<linearGradient id="paint4_linear" x1="4.68728" y1="68.9294" x2="7.48572" y2="66.8046" gradientUnits="userSpaceOnUse">
<stop stop-color="#333333"/>
<stop offset="0.1883"/>
<stop offset="0.3849" stop-color="#333333"/>
<stop offset="0.5983"/>
<stop offset="0.8033" stop-color="#333333"/>
<stop offset="1"/>
</linearGradient>
<linearGradient id="paint5_linear" x1="19.1598" y1="57.9406" x2="16.3614" y2="60.0655" gradientUnits="userSpaceOnUse">
<stop offset="0.1548" stop-color="#A1A1A1"/>
<stop offset="0.9205" stop-color="white"/>
</linearGradient>
<linearGradient id="paint6_linear" x1="19.1598" y1="57.9406" x2="16.3614" y2="60.0655" gradientUnits="userSpaceOnUse">
<stop stop-color="#333333"/>
<stop offset="0.1883"/>
<stop offset="0.3849" stop-color="#333333"/>
<stop offset="0.5983"/>
<stop offset="0.8033" stop-color="#333333"/>
<stop offset="1"/>
</linearGradient>
<radialGradient id="paint7_radial" cx="0" cy="0" r="1" gradientUnits="userSpaceOnUse" gradientTransform="translate(23.1264 78.0123) rotate(53.4485) scale(10.3627 25.9614)">
<stop stop-color="white" stop-opacity="0.8"/>
<stop offset="1" stop-color="white" stop-opacity="0.01"/>
</radialGradient>
</defs>
</svg>
