<svg width="21" height="21" viewBox="0 0 21 21" fill="none" xmlns="http://www.w3.org/2000/svg">
<path fill-rule="evenodd" clip-rule="evenodd" d="M0.278149 16.7466L6.52474 10.5L0.278149 4.25341C-0.0927162 3.88254 -0.0927162 3.27412 0.278149 2.90326L2.90326 0.278149C3.27412 -0.0927162 3.88254 -0.0927162 4.25341 0.278149L10.5 6.52474L16.7466 0.278149C17.1175 -0.0927162 17.7259 -0.0927162 18.0967 0.278149L20.7219 2.90326C21.0927 3.27412 21.0927 3.88254 20.7219 4.25341L14.4753 10.5L20.7219 16.7466C21.0927 17.1175 21.0927 17.7259 20.7219 18.0967L18.0967 20.7219C17.7259 21.0927 17.1175 21.0927 16.7466 20.7219L10.5 14.4753L4.25341 20.7219C3.88254 21.0927 3.27412 21.0927 2.90326 20.7219L0.278149 18.0967C-0.0927162 17.7259 -0.0927162 17.1175 0.278149 16.7466Z" fill="#4B545A"/>
</svg>
