<svg width="54" height="54" viewBox="0 0 54 54" fill="none" xmlns="http://www.w3.org/2000/svg">
<g filter="url(#filter0_d)">
<path d="M19.3761 12.7868C18.4377 13.658 17.2854 14.8172 16.9056 15.5768C16.0595 17.2691 17.3287 21.9229 21.9826 26.9999C25.7057 31.0614 30.3032 32.8103 32.9826 33.0923C34.7008 33.2732 36.303 31.5868 37.2315 30.3534C37.7637 29.6464 37.6375 28.6792 37.0221 28.0433L34.5809 25.5208C33.7364 24.6481 32.3186 24.7275 31.5061 25.6301C30.9543 26.2431 30.376 26.8225 30.0211 27C28.6458 27.6877 22.4057 21.0769 22.8287 19.8075C23.1369 19.3453 23.6696 18.8269 24.2223 18.3545C25.1965 17.5221 25.3321 16.0055 24.4049 15.121L22.0075 12.8342C21.2706 12.1313 20.1224 12.0939 19.3761 12.7868Z" fill="white"/>
<path d="M19.3761 12.7868C18.4377 13.658 17.2854 14.8172 16.9056 15.5768C16.0595 17.2691 17.3287 21.9229 21.9826 26.9999C25.7057 31.0614 30.3032 32.8103 32.9826 33.0923C34.7008 33.2732 36.303 31.5868 37.2315 30.3534C37.7637 29.6464 37.6375 28.6792 37.0221 28.0433L34.5809 25.5208C33.7364 24.6481 32.3186 24.7275 31.5061 25.6301C30.9543 26.2431 30.376 26.8225 30.0211 27C28.6458 27.6877 22.4057 21.0769 22.8287 19.8075C23.1369 19.3453 23.6696 18.8269 24.2223 18.3545C25.1965 17.5221 25.3321 16.0055 24.4049 15.121L22.0075 12.8342C21.2706 12.1313 20.1224 12.0939 19.3761 12.7868Z" stroke="#3E4958" stroke-width="2"/>
</g>
<defs>
<filter id="filter0_d" x="0.661163" y="0.286377" width="52.9061" height="52.8194" filterUnits="userSpaceOnUse" color-interpolation-filters="sRGB">
<feFlood flood-opacity="0" result="BackgroundImageFix"/>
<feColorMatrix in="SourceAlpha" type="matrix" values="0 0 0 0 0 0 0 0 0 0 0 0 0 0 0 0 0 0 127 0"/>
<feOffset dy="4"/>
<feGaussianBlur stdDeviation="7.5"/>
<feColorMatrix type="matrix" values="0 0 0 0 0 0 0 0 0 0 0 0 0 0 0 0 0 0 0.15 0"/>
<feBlend mode="normal" in2="BackgroundImageFix" result="effect1_dropShadow"/>
<feBlend mode="normal" in="SourceGraphic" in2="effect1_dropShadow" result="shape"/>
</filter>
</defs>
</svg>
